HIERARCHY
ROOT hip
{
  OFFSET 293.573 80.3666 -48.4273
  CHANNELS 6 Xposition Yposition Zposition Zrotation Xrotation Yrotation
  JOINT abdomen
  {
    OFFSET 0 20.6881 -0.73152
    CHANNELS 3 Zrotation Xrotation Yrotation
    JOINT chest
    {
      OFFSET 0 11.7043 -0.48768
      CHANNELS 3 Zrotation Xrotation Yrotation
      JOINT neck
      {
        OFFSET 0 22.1894 -2.19456
        CHANNELS 3 Zrotation Xrotation Yrotation
        JOINT head
        {
          OFFSET -0.24384 7.07133 1.2192
          CHANNELS 3 Zrotation Xrotation Yrotation
          JOINT leftEye
          {
            OFFSET 4.14528 8.04674 8.04672
            CHANNELS 3 Zrotation Xrotation Yrotation
            End Site
            {
              OFFSET 1 0 0
            }
          }
          JOINT rightEye
          {
            OFFSET -3.6576 8.04674 8.04672
            CHANNELS 3 Zrotation Xrotation Yrotation
            End Site
            {
              OFFSET 1 0 0
            }
          }
        }
      }
      JOINT rCollar
      {
        OFFSET -2.68224 19.2634 -4.8768
        CHANNELS 3 Zrotation Xrotation Yrotation
        JOINT rShldr
        {
          OFFSET -8.77824 -1.95073 1.46304
          CHANNELS 3 Zrotation Xrotation Yrotation
          JOINT rForeArm
          {
            OFFSET -28.1742 -1.7115 0.48768
            CHANNELS 3 Zrotation Xrotation Yrotation
            JOINT rHand
            {
              OFFSET -22.5879 0.773209 7.07136
              CHANNELS 3 Zrotation Xrotation Yrotation
              JOINT rThumb1
              {
                OFFSET -1.2192 -0.487915 3.41376
                CHANNELS 3 Zrotation Xrotation Yrotation
                JOINT rThumb2
                {
                  OFFSET -3.37035 -0.52449 3.41376
                  CHANNELS 3 Zrotation Xrotation Yrotation
                  End Site
                  {
                    OFFSET -1.78271 -1.18214 1.43049
                  }
                }
              }
              JOINT rIndex1
              {
                OFFSET -7.75947 0.938293 5.60832
                CHANNELS 3 Zrotation Xrotation Yrotation
                JOINT rIndex2
                {
                  OFFSET -2.54057 -0.884171 1.56538
                  CHANNELS 3 Zrotation Xrotation Yrotation
                  End Site
                  {
                    OFFSET -1.62519 -0.234802 1.16502
                  }
                }
              }
              JOINT rMid1
              {
                OFFSET -8.24714 1.18213 3.41376
                CHANNELS 3 Zrotation Xrotation Yrotation
                JOINT rMid2
                {
                  OFFSET -3.10165 -0.590103 1.0647
                  CHANNELS 3 Zrotation Xrotation Yrotation
                  End Site
                  {
                    OFFSET -2.48547 -0.328903 0.83742
                  }
                }
              }
              JOINT rRing1
              {
                OFFSET -8.82822 0.546677 1.51678
                CHANNELS 3 Zrotation Xrotation Yrotation
                JOINT rRing2
                {
                  OFFSET -2.60934 -0.819778 -0.0198488
                  CHANNELS 3 Zrotation Xrotation Yrotation
                  End Site
                  {
                    OFFSET -2.33842 -0.294052 0.168128
                  }
                }
              }
              JOINT rPinky1
              {
                OFFSET -8.27202 -0.0477905 -0.4584
                CHANNELS 3 Zrotation Xrotation Yrotation
                JOINT rPinky2
                {
                  OFFSET -1.82734 -0.647385 -0.700984
                  CHANNELS 3 Zrotation Xrotation Yrotation
                  End Site
                  {
                    OFFSET -1.69225 -0.51767 -0.607171
                  }
                }
              }
            }
          }
        }
      }
      JOINT lCollar
      {
        OFFSET 2.68224 19.2634 -4.8768
        CHANNELS 3 Zrotation Xrotation Yrotation
        JOINT lShldr
        {
          OFFSET 8.77824 -1.95073 1.46304
          CHANNELS 3 Zrotation Xrotation Yrotation
          JOINT lForeArm
          {
            OFFSET 28.1742 -1.7115 0.48768
            CHANNELS 3 Zrotation Xrotation Yrotation
            JOINT lHand
            {
              OFFSET 22.5879 0.773209 7.07136
              CHANNELS 3 Zrotation Xrotation Yrotation
              JOINT lThumb1
              {
                OFFSET 1.2192 -0.487915 3.41376
                CHANNELS 3 Zrotation Xrotation Yrotation
                JOINT lThumb2
                {
                  OFFSET 3.37035 -0.52449 3.41376
                  CHANNELS 3 Zrotation Xrotation Yrotation
                  End Site
                  {
                    OFFSET 1.78271 -1.18214 1.43049
                  }
                }
              }
              JOINT lIndex1
              {
                OFFSET 7.75947 0.938293 5.60832
                CHANNELS 3 Zrotation Xrotation Yrotation
                JOINT lIndex2
                {
                  OFFSET 2.54057 -0.884171 1.56538
                  CHANNELS 3 Zrotation Xrotation Yrotation
                  End Site
                  {
                    OFFSET 1.62519 -0.234802 1.16502
                  }
                }
              }
              JOINT lMid1
              {
                OFFSET 8.24714 1.18213 3.41376
                CHANNELS 3 Zrotation Xrotation Yrotation
                JOINT lMid2
                {
                  OFFSET 3.10165 -0.590103 1.0647
                  CHANNELS 3 Zrotation Xrotation Yrotation
                  End Site
                  {
                    OFFSET 2.48547 -0.328903 0.83742
                  }
                }
              }
              JOINT lRing1
              {
                OFFSET 8.82822 0.546677 1.51678
                CHANNELS 3 Zrotation Xrotation Yrotation
                JOINT lRing2
                {
                  OFFSET 2.60934 -0.819778 -0.0198488
                  CHANNELS 3 Zrotation Xrotation Yrotation
                  End Site
                  {
                    OFFSET 2.33842 -0.294052 0.168128
                  }
                }
              }
              JOINT lPinky1
              {
                OFFSET 8.27202 -0.0477905 -0.4584
                CHANNELS 3 Zrotation Xrotation Yrotation
                JOINT lPinky2
                {
                  OFFSET 1.82734 -0.647385 -0.700984
                  CHANNELS 3 Zrotation Xrotation Yrotation
                  End Site
                  {
                    OFFSET 1.69225 -0.51767 -0.607171
                  }
                }
              }
            }
          }
        }
      }
    }
  }
  JOINT rButtock
  {
    OFFSET -8.77824 4.35084 1.2192
    CHANNELS 3 Zrotation Xrotation Yrotation
    JOINT rThigh
    {
      OFFSET 0 -1.70687 -2.19456
      CHANNELS 3 Zrotation Xrotation Yrotation
      JOINT rShin
      {
        OFFSET 0 -36.8199 0.73152
        CHANNELS 3 Zrotation Xrotation Yrotation
        JOINT rFoot
        {
          OFFSET 0.73152 -45.1104 -5.12064
          CHANNELS 3 Zrotation Xrotation Yrotation
          End Site
          {
            OFFSET -1.1221 -3.69964 12.103
          }
        }
      }
    }
  }
  JOINT lButtock
  {
    OFFSET 8.77824 4.35084 1.2192
    CHANNELS 3 Zrotation Xrotation Yrotation
    JOINT lThigh
    {
      OFFSET 0 -1.70687 -2.19456
      CHANNELS 3 Zrotation Xrotation Yrotation
      JOINT lShin
      {
        OFFSET 0 -36.8199 0.73152
        CHANNELS 3 Zrotation Xrotation Yrotation
        JOINT lFoot
        {
          OFFSET -0.73152 -45.1104 -5.12064
          CHANNELS 3 Zrotation Xrotation Yrotation
          End Site
          {
            OFFSET 1.1221 -3.69964 12.103
          }
        }
      }
    }
  }
}
MOTION
Frames:	5
Frame Time:	0.00833333
-168.474 85.4571 5.12393 -1.46715 0.00515103 0.0277563 1.92989 -0.00172187 0.052385 0.532103 0.00507089 0.0921262 -1.85257e-014 1.59028e-015 -7.20594e-016 -5.51177e-014 1.59028e-014 -2.21614e-015 -0 0 0 -0 0 0 -8.79798e-015 -2.52363e-017 -2.48481e-016 -1.9131e-013 -3.78933e-016 -6.75868e-015 -3.31677e-012 9.78021e-013 -1.17681e-013 -3.78624e-011 -1.06362e-012 -1.49486e-012 -8.93275e-011 -1.8711e-013 -3.48271e-012 -1.54278e-010 -3.18055e-013 -6.02318e-012 -8.93219e-011 -1.8646e-013 -3.49861e-012 7.73091 5.47488 0.417314 -8.9329e-011 -1.87255e-013 -3.48907e-012 2.90554 0.965183 0.102902 -8.93186e-011 -1.87255e-013 -3.48827e-012 10.2786 0.731801 0.0259123 -8.93332e-011 -1.83279e-013 -3.48271e-012 2.22167 -0.733487 -0.20892 -8.99386e-015 -1.96067e-017 -4.47265e-016 -1.95238e-013 -8.07563e-017 -8.94531e-015 -3.3037e-012 -1.00824e-012 -1.04958e-013 -3.78963e-011 9.3563e-013 -1.50758e-012 -8.93621e-011 -1.64219e-013 -3.49543e-012 -1.54307e-010 -2.8943e-013 -6.02954e-012 -8.93652e-011 -1.64196e-013 -3.48589e-012 -7.73091 5.47488 -0.417314 -8.93622e-011 -1.64792e-013 -3.50179e-012 -2.90554 0.965183 -0.102902 -8.9364e-011 -1.64594e-013 -3.49622e-012 -10.2786 0.731801 -0.0259123 -8.93581e-011 -1.61016e-013 -3.50179e-012 -2.22167 -0.733487 0.20892 -2.03217e-016 0 -3.88251e-019 1.95709 -7.26115 -0.191863 0.00413483 7.58526 0.107185 -0.518907 -0.330652 0.052065 2.03217e-016 0 3.88251e-019 0.976791 -1.92613 0.000867967 0.0089862 -2.0786 0.0740544 0.487753 3.99809 -0.136719 
-162.365 85.3133 -3.56464 2.10915 5.67055 23.678 0.508272 1.61267 1.259 0.935065 -0.679353 0.46068 0.729231 -1.97754 0.626019 -0.233509 1.62419 1.051 -0 0 0 -0 0 0 -1.83788e-014 8.9575e-013 -1.55691e-013 21.8361 9.36535 -0.111094 -5.11718 -2.53697 7.74914 4.2132e-005 -0.14912 -0.0209572 -7.60672e-012 1.49608e-010 -4.80855e-011 -1.27594e-011 2.59e-010 -8.34591e-011 -7.60311e-012 1.49609e-010 -4.80988e-011 7.73091 5.47488 0.417314 -7.60733e-012 1.49608e-010 -4.80892e-011 2.90554 0.965183 0.102902 -7.59849e-012 1.49609e-010 -4.80907e-011 10.2786 0.731801 0.0259123 -7.61004e-012 1.49612e-010 -4.80856e-011 2.22167 -0.733487 -0.20892 -1.85645e-014 8.95754e-013 -1.55903e-013 -21.5582 10.2858 0.12477 5.60558 -2.89172 -8.36179 -0.0370647 4.27979 -0.595473 1.66313e-010 -7.46372e-011 -2.98957e-011 2.87297e-010 -1.29215e-010 -5.45691e-011 1.66306e-010 -7.46349e-011 -2.98825e-011 -7.73091 5.47488 -0.417314 1.66313e-010 -7.46352e-011 -2.98991e-011 -2.90554 0.965183 -0.102902 1.66309e-010 -7.46344e-011 -2.98939e-011 -10.2786 0.731801 -0.0259123 1.66315e-010 -7.46317e-011 -2.98984e-011 -2.22167 -0.733487 0.20892 -2.03217e-016 0 -3.88251e-019 -0.936294 -4.54638 -1.40172 0.00540085 7.82375 0.114034 -0.644311 -4.58304 -2.69596 2.03217e-016 0 3.88251e-019 2.4563 1.11027 -0.680514 0.00279786 -2.39802 0.0369639 0.8088 0.0392525 5.38635 
-162.361 85.3152 -3.69113 1.41568 8.43267 49.1365 -1.07262 3.31506 2.53874 1.36882 -1.40054 0.850641 1.54591 -4.064 1.28955 -0.540351 3.33369 2.16366 -0 0 0 -0 0 0 -2.77335e-014 1.9604e-012 -3.27892e-013 44.963 19.2632 -0.239174 -9.78767 -5.06417 15.9893 -3.47569e-005 -0.311235 -0.0437413 5.62042e-011 3.15762e-010 -8.92112e-011 9.78649e-011 5.46614e-010 -1.54857e-010 5.62057e-011 3.15765e-010 -8.92215e-011 7.73091 5.47488 0.417314 5.62045e-011 3.15764e-010 -8.9212e-011 2.90554 0.965183 0.102902 5.62118e-011 3.15766e-010 -8.9216e-011 10.2786 0.731801 0.0259123 5.62035e-011 3.15768e-010 -8.92114e-011 2.22167 -0.733487 -0.20892 -2.79094e-014 1.9604e-012 -3.28119e-013 -44.4299 21.1371 0.366178 10.699 -5.80198 -17.3946 0.0217501 8.83118 -1.24015 4.61684e-010 -1.67142e-010 -8.48033e-011 7.97205e-010 -2.89282e-010 -1.52841e-010 4.61674e-010 -1.67137e-010 -8.4786e-011 -7.73091 5.47488 -0.417314 4.61684e-010 -1.67137e-010 -8.48035e-011 -2.90554 0.965183 -0.102902 4.61678e-010 -1.67135e-010 -8.47988e-011 -10.2786 0.731801 -0.0259123 4.61685e-010 -1.67134e-010 -8.48019e-011 -2.22167 -0.733487 0.20892 -2.03217e-016 0 -3.88251e-019 -3.87487 -1.67778 -2.67627 0.0066803 8.07595 0.121289 -1.22442 -9.04223 -5.65329 2.03217e-016 0 3.88251e-019 4.0937 4.31972 -1.40947 -0.00414947 -2.73806 -0.00221059 1.97466 -4.06523 11.2595 
-162.32 85.3467 -3.76556 -0.862863 6.06395 71.5477 -2.53942 4.83267 3.68385 1.76742 -2.04782 1.19846 2.3179 -5.92979 1.88704 -0.879735 4.86599 3.16313 -0 0 0 -0 0 0 -3.75405e-014 2.6873e-012 -4.66575e-013 65.6296 28.0956 -0.372766 -13.3426 -7.05523 23.4122 -0.000200875 -0.447359 -0.0628732 1.55835e-010 4.49197e-010 -1.37291e-010 2.70277e-010 7.77635e-010 -2.38331e-010 1.55834e-010 4.49201e-010 -1.37299e-010 7.73091 5.47488 0.417314 1.55836e-010 4.49199e-010 -1.3729e-010 2.90554 0.965183 0.102902 1.55842e-010 4.49203e-010 -1.37296e-010 10.2786 0.731801 0.0259123 1.55836e-010 4.49204e-010 -1.37291e-010 2.22167 -0.733487 -0.20892 -3.77059e-014 2.6873e-012 -4.66815e-013 -64.8278 30.8568 0.429023 14.3544 -7.93766 -25.3125 0.161457 12.8338 -1.8271 6.77663e-010 -2.23583e-010 -8.26962e-011 1.1705e-009 -3.87067e-010 -1.51648e-010 6.7765e-010 -2.23576e-010 -8.26756e-011 -7.73091 5.47488 -0.417314 6.77663e-010 -2.23576e-010 -8.26939e-011 -2.90554 0.965183 -0.102902 6.77655e-010 -2.23574e-010 -8.26894e-011 -10.2786 0.731801 -0.0259123 6.77662e-010 -2.23573e-010 -8.26915e-011 -2.22167 -0.733487 0.20892 -2.03217e-016 0 -3.88251e-019 -6.37973 0.877225 -3.81173 0.00776 8.30073 0.127762 -2.14144 -12.9678 -8.38136 2.03217e-016 0 3.88251e-019 5.63325 7.17872 -2.05904 -0.0108211 -3.03686 -0.0372692 3.72253 -7.55424 16.5798 
-162.369 85.3147 -3.68599 -1.88294 1.49063 86.3726 -3.57664 5.89669 4.4814 2.05961 -2.51066 1.44028 2.88666 -7.24656 2.31097 -1.17519 5.96144 3.87015 -0 0 0 -0 0 0 -4.84784e-014 2.56982e-012 -5.21462e-013 80.0552 34.2649 -0.482926 -15.5052 -8.23549 28.6348 -0.000329739 -0.518504 -0.072873 3.45015e-010 5.00832e-010 -2.02757e-010 5.97159e-010 8.67175e-010 -3.51994e-010 3.45013e-010 5.00836e-010 -2.02764e-010 7.73091 5.47488 0.417314 3.45016e-010 5.00835e-010 -2.02754e-010 2.90554 0.965183 0.102902 3.45021e-010 5.00839e-010 -2.02761e-010 10.2786 0.731801 0.0259123 3.45017e-010 5.00839e-010 -2.02757e-010 2.22167 -0.733487 -0.20892 -4.86311e-014 2.56982e-012 -5.2171e-013 -78.7217 37.7483 -0.107508 16.2509 -8.92234 -30.2039 0.302813 15.4699 -2.22914 6.9516e-010 -1.89866e-010 6.19477e-011 1.20228e-009 -3.29146e-010 9.8206e-011 6.95146e-010 -1.89859e-010 6.19699e-011 -7.73091 5.47488 -0.417314 6.95162e-010 -1.89859e-010 6.19508e-011 -2.90554 0.965183 -0.102902 6.95152e-010 -1.89857e-010 6.19556e-011 -10.2786 0.731801 -0.0259123 6.9516e-010 -1.89856e-010 6.1954e-011 -2.22167 -0.733487 0.20892 -2.03217e-016 0 -3.88251e-019 -8.04243 2.656 -4.59826 0.00846267 8.45696 0.132259 -3.01506 -15.6729 -10.3582 2.03217e-016 0 3.88251e-019 6.77134 9.16607 -2.49306 -0.0159146 -3.23254 -0.0619973 5.32517 -9.84338 20.3364 
